PathFileType	4	(X/Y/Z)	/Users/itak/Documents/Research/Walk-IL/dataset/trc/00141_00007.trc
DataRate	CameraRate	NumFrames	NumMarkers	Units	OrigDataRate	OrigDataStartFrame	OrigNumFrames
100.000000	100.000000	4	53	mm	100.000000	524	599
Frame#	Time	RPSI			LPSI			L3			STRN			T10			C7			CLAV			RBAK			LBAK			LSHO			LUPA			LAEL			LAOL			LWTS			LWPS			LFRA			LIFD			LHPS			LHTS			RSHO			RUPA			RAEL			RAOL			RWTS			RWPS			RFRA			RIFD			RHTS			RHPS			RBHD			LFHD			RFHD			LBHD			LHIP			RHIP			RASI			LASI			LKNE			LTHI			LANK			LTIP			LTOE			LMT1			LMT5			LHEE			RKNE			RTHI			RANK			RTIP			RTOE			RMT1			RMT5			RHEE			
		X1	Y1	Z1	X2	Y2	Z2	X3	Y3	Z3	X4	Y4	Z4	X5	Y5	Z5	X6	Y6	Z6	X7	Y7	Z7	X8	Y8	Z8	X9	Y9	Z9	X10	Y10	Z10	X11	Y11	Z11	X12	Y12	Z12	X13	Y13	Z13	X14	Y14	Z14	X15	Y15	Z15	X16	Y16	Z16	X17	Y17	Z17	X18	Y18	Z18	X19	Y19	Z19	X20	Y20	Z20	X21	Y21	Z21	X22	Y22	Z22	X23	Y23	Z23	X24	Y24	Z24	X25	Y25	Z25	X26	Y26	Z26	X27	Y27	Z27	X28	Y28	Z28	X29	Y29	Z29	X30	Y30	Z30	X31	Y31	Z31	X32	Y32	Z32	X33	Y33	Z33	X34	Y34	Z34	X35	Y35	Z35	X36	Y36	Z36	X37	Y37	Z37	X38	Y38	Z38	X39	Y39	Z39	X40	Y40	Z40	X41	Y41	Z41	X42	Y42	Z42	X43	Y43	Z43	X44	Y44	Z44	X45	Y45	Z45	X46	Y46	Z46	X47	Y47	Z47	X48	Y48	Z48	X49	Y49	Z49	X50	Y50	Z50	X51	Y51	Z51	X52	Y52	Z52	X53	Y53	Z53	

525	5.24	952.9712524414062	1113.63134765625	37.2471923828125	816.7797241210938	1111.27392578125	39.85457611083984	882.6455688476562	1145.360473632812	47.78529357910156	875.7506103515625	1362.566772460938	-154.5955963134766	887.4717407226562	1293.291259765625	93.92108917236328	867.1732788085938	1588.27685546875	85.21780395507812	869.2573852539062	1493.46533203125	-106.3361511230469	961.49365234375	1402.180908203125	122.1781921386719	767.5363159179688	1564.247314453125	94.39712524414062	694.5270385742188	1553.814331054688	10.19181156158447	629.147705078125	1419.677368164062	29.5615177154541	608.75634765625	1202.469116210938	14.72482013702393	678.680908203125	1187.49853515625	70.56779479980469	634.1436767578125	949.800048828125	-102.8824768066406	625.2193603515625	919.8504638671875	-18.41841125488281	602.1265258789062	1086.754638671875	-5.34758472442627	648.4763793945312	756.091064453125	-130.4832000732422	620.1467895507812	846.4166870117188	-50.01905059814453	622.165771484375	861.4964599609375	-119.1308288574219	1045.691162109375	1578.804321289062	19.02751350402832	1112.434936523438	1506.92041015625	25.54472160339355	1148.843994140625	1214.888427734375	-9.310927391052246	1054.678588867188	1207.933227539062	7.315981388092041	1127.5126953125	1003.389465332031	-196.7920989990234	1169.334838867188	974.8901977539062	-131.9446868896484	1164.452880859375	1147.699951171875	-48.31088638305664	1120.376342773438	818.6458129882812	-264.6175231933594	1134.4189453125	905.56396484375	-248.7148742675781	1172.6982421875	886.31982421875	-190.1632385253906	942.5958862304688	1757.586303710938	52.60089492797852	788.8505249023438	1842.380981445312	-81.23817443847656	918.1629638671875	1853.478637695312	-95.4471435546875	811.1293334960938	1749.895874023438	76.33253479003906	704.0293579101562	1031.364379882812	-61.19343948364258	1069.584716796875	1029.99658203125	-100.1744384765625	1016.114074707031	1107.41015625	-175.6711730957031	749.0742797851562	1104.526000976562	-161.0287933349609	735.31982421875	535.44677734375	-191.5492401123047	710.6172485351562	678.5675659179688	-139.6470794677734	727.1136474609375	41.66456985473633	-14.82563781738281	703.9744873046875	294.0397644042969	-62.87827301025391	787.306884765625	43.6078987121582	-238.7212677001953	821.386962890625	45.10422134399414	-159.9473876953125	706.6388549804688	36.06333923339844	-139.4427947998047	786.1005859375	43.19861221313477	56.45631408691406	1014.33984375	536.7731323242188	-110.1834259033203	1054.110473632812	817.3268432617188	-126.6545791625977	961.2009887695312	25.09182929992676	-17.47014808654785	1016.916748046875	401.3789367675781	-87.68746185302734	893.5377197265625	38.74896240234375	-246.6543426513672	858.01025390625	34.0828857421875	-183.1367797851562	978.4749755859375	34.93595886230469	-153.8483123779297	915.1907958984375	28.80701065063477	41.96343612670898	
526	5.25	953.0563354492188	1113.704956054688	35.82235336303711	816.8675537109375	1111.40576171875	38.31009292602539	882.69384765625	1145.191162109375	46.26011657714844	876.1875610351562	1362.52197265625	-155.6706848144531	887.2332153320312	1293.024536132812	92.88895416259766	867.4672241210938	1588.054931640625	84.35830688476562	869.8033447265625	1493.33251953125	-107.2580184936523	961.2379760742188	1401.66455078125	121.4597396850586	767.72412109375	1564.215698242188	93.29208374023438	694.9012451171875	1554.001098632812	8.88135814666748	629.2353515625	1419.884521484375	27.94611167907715	608.7667846679688	1202.698852539062	12.69445610046387	678.444580078125	1187.553344726562	68.759521484375	634.5311279296875	950.5484619140625	-105.8583145141602	625.1548461914062	920.1956176757812	-21.43074798583984	602.1400146484375	1087.043579101562	-7.839034080505371	649.0010986328125	756.9845581054688	-134.3354187011719	620.3189086914062	846.9306030273438	-53.92749786376953	622.6199951171875	862.3424072265625	-122.5898971557617	1046.140747070312	1578.094482421875	18.71311187744141	1112.59814453125	1505.921875	25.39566421508789	1147.769775390625	1213.826416015625	-9.627505302429199	1053.450927734375	1207.31787109375	6.402483463287354	1127.159423828125	1001.04443359375	-195.7039031982422	1168.534912109375	973.0377807617188	-130.3750610351562	1163.438598632812	1146.452026367188	-48.13425064086914	1120.2392578125	815.712158203125	-262.0171203613281	1134.255859375	902.7535400390625	-246.7407379150391	1172.160888671875	883.9822998046875	-187.8126983642578	943.2677001953125	1757.448486328125	51.75258636474609	789.5397338867188	1842.298706054688	-82.11756134033203	918.8930053710938	1853.362182617188	-96.32094573974609	811.78515625	1749.843872070312	75.46816253662109	704.1930541992188	1031.338256835938	-62.74455642700195	1069.545288085938	1029.951782226562	-101.691162109375	1016.269348144531	1107.272216796875	-177.0522766113281	749.174072265625	1104.487548828125	-162.5514831542969	735.6355590820312	534.8728637695312	-188.8145599365234	710.6722412109375	678.14111328125	-138.0609283447266	727.568603515625	40.65265274047852	-15.90335559844971	704.3787841796875	292.5524291992188	-62.36529541015625	786.85498046875	41.60093307495117	-240.5998229980469	821.3331298828125	43.52019500732422	-161.5094909667969	706.0823974609375	35.76293563842773	-140.7071533203125	786.4837036132812	41.25754547119141	55.09149551391602	1014.533447265625	536.6935424804688	-110.0659561157227	1054.08544921875	817.1146240234375	-127.6414184570312	961.2633056640625	25.00825309753418	-17.41044807434082	1017.04443359375	401.3161926269531	-87.43177795410156	893.7374267578125	38.91827392578125	-246.5179748535156	858.070556640625	34.0452766418457	-183.0216369628906	978.5111694335938	34.92342376708984	-153.7844848632812	915.22607421875	28.69828605651855	42.01804351806641	
527	5.26	953.1884765625	1113.819946289062	34.36053848266602	817.0030517578125	1111.617797851562	36.78046798706055	882.7931518554688	1145.07958984375	44.72241592407227	876.5911865234375	1362.508056640625	-156.7442779541016	886.9537963867188	1292.7998046875	91.93235778808594	867.7032470703125	1587.873901367188	83.52854919433594	870.3204345703125	1493.232788085938	-108.1569519042969	960.9195556640625	1401.171875	120.7465438842773	767.8526000976562	1564.213623046875	92.19977569580078	695.219970703125	1554.2177734375	7.567280769348145	629.2545776367188	1420.127319335938	26.29533767700195	608.6969604492188	1202.968383789062	10.62562847137451	678.1041259765625	1187.639526367188	66.92622375488281	634.8204956054688	951.3165893554688	-108.8155059814453	624.9874267578125	920.5869750976562	-24.4372386932373	602.062744140625	1087.38037109375	-10.3489408493042	649.42626953125	757.8880004882812	-138.1252136230469	620.3826293945312	847.4874267578125	-57.77665328979492	622.9658813476562	863.2034301757812	-126.0116882324219	1046.531982421875	1577.427856445312	18.4547119140625	1112.708374023438	1504.97265625	25.30182647705078	1146.645141601562	1212.812377929688	-9.828568458557129	1052.170654296875	1206.759033203125	5.559776782989502	1126.859985351562	998.7213745117188	-194.4401092529297	1167.668579101562	971.2032470703125	-128.5619964599609	1162.37158203125	1145.247314453125	-47.80221939086914	1120.179077148438	812.8071899414062	-259.1903076171875	1134.1884765625	899.9600830078125	-244.5476989746094	1171.592895507812	881.6559448242188	-185.1694488525391	943.8841552734375	1757.33349609375	50.95474243164062	790.2096557617188	1842.269653320312	-82.93758392333984	919.5950317382812	1853.297485351562	-97.11853790283203	812.3915405273438	1749.816772460938	74.64717102050781	704.33837890625	1031.42919921875	-64.25691986083984	1069.470336914062	1029.89990234375	-103.2690277099609	1016.375061035156	1107.17431640625	-178.4997711181641	749.2261352539062	1104.5029296875	-164.0449981689453	735.6953735351562	534.3720092773438	-185.8683319091797	710.534912109375	677.8346557617188	-136.2106170654297	727.8876953125	39.82287216186523	-16.52511596679688	704.6880493164062	291.3145141601562	-61.40438461303711	786.4791259765625	40.02080154418945	-241.9451446533203	821.2626953125	42.23922348022461	-162.5599670410156	705.6168212890625	35.62559509277344	-141.5070190429688	786.779541015625	39.61025619506836	54.26699066162109	1014.705749511719	536.6251220703125	-109.7946624755859	1054.002197265625	816.9312744140625	-128.6220245361328	961.333740234375	24.91335296630859	-17.35885238647461	1017.163879394531	401.2778625488281	-87.04334259033203	893.9161987304688	39.06934356689453	-246.3883056640625	858.127197265625	34.03968048095703	-182.9055480957031	978.5371704101562	34.9140739440918	-153.7273712158203	915.2788696289062	28.59699249267578	42.0677375793457	
528	5.27	953.3724365234375	1113.986572265625	32.86600494384766	817.1892700195312	1111.926513671875	35.27196502685547	882.952880859375	1145.048217773438	43.17537689208984	876.9596557617188	1362.531005859375	-157.8139495849609	886.645751953125	1292.63134765625	91.05984497070312	867.8886108398438	1587.745849609375	82.72722625732422	870.8062133789062	1493.173461914062	-109.0353927612305	960.5501098632812	1400.71826171875	120.0306015014648	767.9329833984375	1564.248901367188	91.12533569335938	695.4889526367188	1554.466552734375	6.261068820953369	629.2164306640625	1420.414306640625	24.62274932861328	608.552001953125	1203.281005859375	8.511337280273438	677.6676635742188	1187.760131835938	65.06050872802734	635.0187377929688	952.1011962890625	-111.7527008056641	624.7323608398438	921.0322265625	-27.47146224975586	601.90087890625	1087.766723632812	-12.88176441192627	649.7200927734375	758.7952270507812	-141.8453826904297	620.325927734375	848.0826416015625	-61.51885604858398	623.203857421875	864.0728759765625	-129.3871307373047	1046.871826171875	1576.82373046875	18.23045539855957	1112.76953125	1504.094604492188	25.24269104003906	1145.486450195312	1211.85888671875	-9.908785820007324	1050.86328125	1206.266235351562	4.785284519195557	1126.602416992188	996.4469604492188	-193.0066223144531	1166.739501953125	969.4141845703125	-126.5231094360352	1161.26513671875	1144.105712890625	-47.31846618652344	1120.14697265625	809.9539794921875	-256.1425170898438	1134.178466796875	897.2033081054688	-242.1436004638672	1170.979248046875	879.369384765625	-182.2610626220703	944.44287109375	1757.256225585938	50.20538711547852	790.8623046875	1842.308471679688	-83.70008087158203	920.2652587890625	1853.292114257812	-97.84482574462891	812.9474487304688	1749.82861328125	73.86626434326172	704.4723510742188	1031.663940429688	-65.70700073242188	1069.373168945312	1029.827514648438	-104.8598556518555	1016.42724609375	1107.115356445312	-180.0094909667969	749.2213134765625	1104.582153320312	-165.4996032714844	735.5299072265625	533.9872436523438	-182.7695922851562	710.2512817382812	677.6798706054688	-134.1456451416016	728.0662231445312	39.14348220825195	-16.7757740020752	704.8870239257812	290.3556823730469	-60.05263137817383	786.2415161132812	38.90895462036133	-242.7696990966797	821.21875	41.27865219116211	-163.13818359375	705.28466796875	35.59800720214844	-141.9212341308594	786.9644165039062	38.26413345336914	53.92051315307617	1014.852172851562	536.5696411132812	-109.371955871582	1053.843017578125	816.7640380859375	-129.6047210693359	961.4122314453125	24.80918502807617	-17.31391906738281	1017.2763671875	401.2681579589844	-86.51654052734375	894.073974609375	39.20215606689453	-246.2652740478516	858.1807250976562	34.06057739257812	-182.7870941162109	978.5532836914062	34.90816116333008	-153.6771850585938	915.34814453125	28.50223159790039	42.11359405517578	
